<svg xmlns="http://www.w3.org/2000/svg" viewBox="0 0 25.37 25.76"><defs><style>.cls-1{fill:#ddc7ac;}.cls-2{fill:#fff;}.cls-3{fill:#231815;}.cls-4{fill:#3f2f17;}</style></defs><title>资源 1</title><g id="图层_2" data-name="图层 2"><g id="图层_5" data-name="图层 5"><rect class="cls-1" width="25.37" height="25.76" rx="4.07"/><path class="cls-2" d="M16.59,12.33a3.91,3.91,0,1,0-3.85,4A3.93,3.93,0,0,0,16.59,12.33ZM14.92,10.6l-.61.37.37.63.61-.36a2.95,2.95,0,0,1,0,2.21l-.63-.37-.36.65.64.36a2.81,2.81,0,0,1-1.89,1.15v-.77h-.72v.77a2.86,2.86,0,0,1-1.93-1.11l.65-.39-.37-.64-.64.39a2.94,2.94,0,0,1-.23-1.08,3.1,3.1,0,0,1,.22-1.15l.65.36.35-.64-.63-.36a2.87,2.87,0,0,1,1.88-1.11v.73h.73V9.52A2.85,2.85,0,0,1,14.92,10.6Z"/><path class="cls-3" d="M15.9,12.34a3.22,3.22,0,1,1-3.26-3.23A3.24,3.24,0,0,1,15.9,12.34Zm-.07,0a3.15,3.15,0,1,0-3.1,3.24A3.18,3.18,0,0,0,15.83,12.34Z"/><path class="cls-4" d="M21.38,12.22A8.77,8.77,0,0,0,12.57,3.5a8.84,8.84,0,0,0,.23,17.67A8.76,8.76,0,0,0,21.38,12.22Zm-4.89.06a3.81,3.81,0,1,1-3.86-3.81A3.84,3.84,0,0,1,16.49,12.28Z"/><path class="cls-4" d="M8.64,22.26c3.87-.11,8.38-.75,10.93-4.52L19,17.42s-2.76,4.17-9.29,4.34"/></g></g></svg>