<svg xmlns="http://www.w3.org/2000/svg" viewBox="0 0 12.9 17.21"><defs><style>.cls-1{fill:#1c1b19;}</style></defs><g id="Layer_2" data-name="Layer 2"><g id="Layer_1-2" data-name="Layer 1"><path class="cls-1" d="M6.45,3.76a3.24,3.24,0,1,0,3,3.47c0-.08,0-.16,0-.24A3.12,3.12,0,0,0,6.45,3.76Zm0,5.38a2.16,2.16,0,1,1,2-2.31s0,.11,0,.16A2.08,2.08,0,0,1,6.45,9.14Z"/><path class="cls-1" d="M6.45,0A6.71,6.71,0,0,0,0,7H0c0,6.23,6.44,10.21,6.44,10.21S12.9,13.21,12.9,7A6.74,6.74,0,0,0,6.45,0Zm0,15.91C5,14.91,1,11.55,1,7A5.47,5.47,0,1,1,11.91,7C11.91,11.55,7.91,14.88,6.45,15.91Z"/><line class="cls-1" x1="7.96" y1="0.2" x2="11.62" y2="2.8"/></g></g></svg>