<svg xmlns="http://www.w3.org/2000/svg" viewBox="0 0 30.29 39.2"><defs><style>.cls-1{fill:#996f53;}.cls-2{fill:#6d6356;}.cls-3{fill:#231815;}.cls-4{fill:#ef4343;}.cls-5{fill:#3f2f17;}</style></defs><title>资源 126</title><g id="图层_2" data-name="图层 2"><g id="图层_1-2" data-name="图层 1"><path class="cls-1" d="M15.15,0A15.15,15.15,0,0,0,0,15.12,15,15,0,0,0,2.68,23.7a3.59,3.59,0,0,0,.28.44L14,38.68a1.49,1.49,0,0,0,1.14.52,1.55,1.55,0,0,0,1.18-.58l11-14.49a3.26,3.26,0,0,0,.26-.39A15.12,15.12,0,0,0,15.15,0Zm0,20.53a5.34,5.34,0,1,1,5.4-5.41,5.41,5.41,0,0,1-5.4,5.41Z"/><path class="cls-2" d="M15.15,9.29a5.4,5.4,0,1,0,5.39,5.4A5.4,5.4,0,0,0,15.15,9.29Zm.53,9.26V17.6h-1v1a3.9,3.9,0,0,1-2.6-1.46l.85-.49-.5-.87-.88.51a4.06,4.06,0,0,1-.32-1.56,3.87,3.87,0,0,1,.29-1.48l.89.52.5-.86L12,12.35a3.88,3.88,0,0,1,2.63-1.53v1h1v-1a3.94,3.94,0,0,1,2.61,1.51l-.86.5.5.87.87-.5a3.84,3.84,0,0,1,0,3l-.84-.49-.5.87.83.48A3.86,3.86,0,0,1,15.68,18.55Z"/><path class="cls-3" d="M15.15,19.33a4.64,4.64,0,1,1,4.64-4.64A4.65,4.65,0,0,1,15.15,19.33Zm0-8.78a4.14,4.14,0,1,0,4.14,4.14A4.14,4.14,0,0,0,15.15,10.55Z"/><polygon class="cls-4" points="17.87 19.7 17.05 20.05 16.34 18.42 16.76 18.26 17.2 18.02 17.87 19.7"/><path class="cls-5" d="M15.15,2.75a12,12,0,1,0,12,12A12,12,0,0,0,15.15,2.75Zm0,17.25a5.25,5.25,0,1,1,5.25-5.25A5.26,5.26,0,0,1,15.15,20Z"/></g></g></svg>