<svg xmlns="http://www.w3.org/2000/svg" viewBox="0 0 28.38 28.38"><defs><style>.cls-1{fill:#e8d7bb;}.cls-2{fill:#302010;}</style></defs><g id="Layer_2" data-name="Layer 2"><g id="Layer_1-2" data-name="Layer 1"><circle class="cls-1" cx="14.19" cy="14.19" r="14.19"/><path class="cls-2" d="M18.74,14a.61.61,0,0,1-.59.59H10.24A.58.58,0,0,1,9.65,14a.59.59,0,0,1,.59-.59h7.91a.58.58,0,0,1,.59.57Zm-.59,2.57H10.24a.6.6,0,0,0-.52.67.62.62,0,0,0,.52.52h7.91a.6.6,0,0,0,.52-.67A.62.62,0,0,0,18.15,16.54Zm3.36-7.79V19.9A2.13,2.13,0,0,1,19.39,22H9a2.13,2.13,0,0,1-2.13-2.13h0V8.75A2.12,2.12,0,0,1,9,6.62h1.46a1.4,1.4,0,0,1,1.38-1.39h4.75A1.4,1.4,0,0,1,18,6.62h1.42a2.17,2.17,0,0,1,2.14,2.13Zm-9.89-1.5v1a.18.18,0,0,0,.17.19h4.78a.17.17,0,0,0,.19-.15V6.68a.18.18,0,0,0-.16-.2H11.82a.19.19,0,0,0-.2.18v.59Zm8.7,1.5a1,1,0,0,0-.95-1H18v.4a1.4,1.4,0,0,1-1.38,1.38H11.82A1.4,1.4,0,0,1,10.44,8.2V7.8H9a1,1,0,0,0-.94,1V19.9a1,1,0,0,0,.94,1H19.37a1,1,0,0,0,.95-1Z"/></g></g></svg>