<svg xmlns="http://www.w3.org/2000/svg" viewBox="0 0 39.91 45.53"><defs><style>.cls-1{fill:#231815;}.cls-2{fill:#fff;}.cls-3{fill:#ef4343;}.cls-4{fill:#b79c7e;}</style></defs><title>资源 1</title><g id="图层_2" data-name="图层 2"><g id="图层_7" data-name="图层 7"><path class="cls-1" d="M25.26,17.81A9.16,9.16,0,0,0,14.65,32.74,9.16,9.16,0,0,0,25.26,17.81ZM25.21,29a7.05,7.05,0,0,1-1.85,1.77l-.63-1.45-1.53.72.65,1.46a6.39,6.39,0,0,1-4.94-.34l1-1.36-1.34-.95-1,1.39a6.43,6.43,0,0,1-2.1-4.57l1.71.14.19-1.67L13.61,24a6.73,6.73,0,0,1,1.1-2.47,6.83,6.83,0,0,1,1.88-1.8l.71,1.61,1.52-.72-.7-1.6a6.37,6.37,0,0,1,5,.42l-1,1.42,1.34.95,1-1.4a6.33,6.33,0,0,1,2,4.56l-1.6-.12-.18,1.67,1.6.13A6.83,6.83,0,0,1,25.21,29Z"/><path class="cls-2" d="M19.67,32.82a7.29,7.29,0,0,1-4.07-1.33A7.52,7.52,0,0,1,14,21a7.69,7.69,0,0,1,4.88-3.13,7.23,7.23,0,0,1,8.52,6.05,7.77,7.77,0,0,1-7.73,8.91Zm.7-14.75a7,7,0,0,0-1.43.12,7.36,7.36,0,0,0-4.67,3,7.18,7.18,0,0,0,1.53,10,7.19,7.19,0,0,0,10-1.85A7.37,7.37,0,0,0,27.07,24a6.91,6.91,0,0,0-2.83-4.63A6.83,6.83,0,0,0,20.37,18.07Z"/><polygon class="cls-3" points="18.74 34.8 17.3 34.51 17.95 31.58 18.67 31.75 19.5 31.85 18.74 34.8"/><path class="cls-4" d="M31.76,8.76c-8.88-6.31-21.37-4-27.89,5.17S-.74,35.65,8.15,42,29.52,46,36,36.81,40.65,15.08,31.76,8.76Zm-17,23.87A8.92,8.92,0,0,1,25.12,18.1,8.92,8.92,0,0,1,14.79,32.63Z"/><path class="cls-4" d="M25.53,0c2.4,1.2,14.55,13.57,14.36,24l-1.47-.11S38.31,10.68,24.86.33"/></g></g></svg>