<svg xmlns="http://www.w3.org/2000/svg" viewBox="0 0 22.82 22.82"><defs><style>.cls-1{fill:#fffbea;}</style></defs><title>资源 126</title><g id="图层_2" data-name="图层 2"><g id="图层_1-2" data-name="图层 1"><rect width="22.82" height="22.82" rx="4.75"/><path class="cls-1" d="M6.52,11a.5.5,0,0,0,0,.81l6.87,5.44a.84.84,0,0,0,1,0,.49.49,0,0,0,0-.81L7.55,11A.89.89,0,0,0,6.52,11Z"/><path class="cls-1" d="M6.52,11.82a.86.86,0,0,0,1,0l6.86-5.44a.49.49,0,0,0,0-.81.87.87,0,0,0-1,0L6.52,11A.5.5,0,0,0,6.52,11.82Z"/></g></g></svg>